<svg width="70" height="70" viewBox="0 0 70 70" fill="none" xmlns="http://www.w3.org/2000/svg">
<path d="M40.4688 57.9688V12.0312C40.4688 10.8281 41.4531 9.84375 42.6562 9.84375H57.9688C59.1719 9.84375 60.1562 10.8281 60.1562 12.0312V57.9688C60.1562 59.1719 59.1719 60.1562 57.9688 60.1562H42.6562C41.4531 60.1562 40.4688 59.1719 40.4688 57.9688Z" fill="#D9DCE1"/>
<path d="M50.3125 18.5938V51.4062" stroke="white" stroke-width="6" stroke-miterlimit="10" stroke-linecap="round"/>
<path d="M49.2188 20.5625C45.3906 16.1875 43.4219 13.3438 37.1875 13.125C36.9688 13.125 33.0312 13.125 32.8125 13.125C20.7812 13.125 10.9375 22.9688 10.9375 35C10.9375 47.0312 20.7812 56.875 32.8125 56.875C33.0312 56.875 36.9688 56.875 37.1875 56.875C43.4219 56.6562 45.3906 53.8125 49.2188 49.4375V20.5625Z" fill="#0478ED"/>
<path d="M53.5938 20.5625C49.5469 15.9687 43.75 13.125 37.1875 13.125C25.1562 13.125 15.3125 22.9688 15.3125 35C15.3125 47.0312 25.1562 56.875 37.1875 56.875C43.75 56.875 49.5469 54.0312 53.5938 49.4375V20.5625Z" fill="#56AAFF"/>
<path d="M39.1562 45.2813V48.7812H35.875V45.2813C33.5781 44.9531 31.5 43.9688 29.6406 42.1094L32.1562 39.0469C33.9062 40.6875 35.9844 41.4531 37.7344 41.4531C39.2656 41.4531 40.3594 40.6875 40.3594 39.4844C40.3594 38.1719 39.375 37.5156 36.8594 36.75C33.3594 35.6562 30.2969 34.4531 30.2969 30.5156C30.2969 27.3437 32.375 24.9375 35.9844 24.5V20.8906H39.2656V24.7188C41.2344 25.1562 43.0938 26.0312 44.5156 27.125L42.1094 30.1875C40.3594 28.9844 38.7187 28.4375 37.2969 28.4375C35.7656 28.4375 34.7812 29.0938 34.7812 30.1875C34.7812 31.3906 35.875 31.9375 38.0625 32.5937C42.2187 33.7969 44.9531 34.8906 44.9531 39.0469C44.8437 42.5469 42.6562 44.7344 39.1562 45.2813Z" fill="white"/>
</svg>