<svg width="55" height="55" viewBox="0 0 55 55" fill="none" xmlns="http://www.w3.org/2000/svg">
<path d="M42.0481 33.4319C43.0407 33.4319 50.4927 33.4319 51.7687 33.4319V42.0611C50.5526 42.0611 43.0896 42.0611 42.0481 42.0611C40.2545 42.0611 38.8254 40.6029 38.8254 38.8384V36.6545C38.8254 34.887 40.2568 33.4319 42.0481 33.4319Z" fill="#688ED5"/>
<path d="M42.0481 33.4318H49.6117V25.8822C49.6117 24.0947 48.1625 22.6467 46.375 22.6467C45.9475 22.6467 10.1823 22.6467 9.70337 22.6467C6.1563 22.6467 3.27632 19.7946 3.23228 16.2583C3.23228 16.5507 3.2312 50.6795 3.2312 50.6902C3.2312 52.4767 4.68032 53.9258 6.46675 53.9258H46.375C48.1625 53.9258 49.6117 52.4767 49.6117 50.6902V42.061H42.0481C40.2545 42.061 38.8254 40.6029 38.8254 38.8384V36.6545C38.8254 34.887 40.2568 33.4318 42.0481 33.4318Z" fill="#8FACE0"/>
<path d="M46.3751 9.70337V22.6466H29.6323C34.5096 20.3451 37.0898 14.9254 35.8037 9.70337H46.3751Z" fill="#4172CA"/>
<path d="M36.1292 12.3997C36.1292 16.9275 33.4726 20.8345 29.6323 22.6467H19.9751C15.0807 20.3371 12.5218 14.904 13.8026 9.70342C15.0111 4.7502 19.4777 1.07422 24.8037 1.07422C31.1003 1.07422 36.1292 6.19008 36.1292 12.3997Z" fill="#F3E872"/>
<path d="M24.8036 31.2748C25.9949 31.2748 26.9607 30.309 26.9607 29.1177C26.9607 27.9264 25.9949 26.9607 24.8036 26.9607C23.6123 26.9607 22.6466 27.9264 22.6466 29.1177C22.6466 30.309 23.6123 31.2748 24.8036 31.2748Z" fill="#F3E872"/>
<path d="M26.9607 46.375C26.9607 47.5674 25.9949 48.5332 24.8036 48.5332C23.6123 48.5332 22.6466 47.5674 22.6466 46.375C22.6466 45.1837 23.6123 44.218 24.8036 44.218C25.9949 44.218 26.9607 45.1834 26.9607 46.375Z" fill="#F3E872"/>
<path d="M19.9751 22.6466H9.70339C6.15632 22.6466 3.27634 19.7946 3.2323 16.2583V16.0993C3.27119 12.5664 6.14623 9.70337 9.70339 9.70337H13.8026C13.5899 10.567 13.4782 11.4694 13.4782 12.3997C13.4782 16.9275 16.1347 20.8344 19.9751 22.6466Z" fill="#4172CA"/>
<path d="M17.8406 39.904C19.0319 39.904 19.9977 38.9383 19.9977 37.747C19.9977 36.5557 19.0319 35.59 17.8406 35.59C16.6493 35.59 15.6836 36.5557 15.6836 37.747C15.6836 38.9383 16.6493 39.904 17.8406 39.904Z" fill="#F3E872"/>
<path d="M49.6114 34.5066C49.0182 34.5066 48.5371 34.0256 48.5371 33.4324V25.8821C48.5371 24.6902 47.5674 23.7206 46.3755 23.7206C45.7823 23.7206 45.3013 23.2395 45.3013 22.6464C45.3013 22.0532 45.7823 21.5721 46.3755 21.5721C48.7521 21.5721 50.6856 23.5056 50.6856 25.8821V33.4324C50.6856 34.0256 50.2045 34.5066 49.6114 34.5066Z" fill="black"/>
<path d="M46.3755 55H6.46721C4.09071 55 2.15723 53.0665 2.15723 50.69L2.15787 16.0999C2.15787 15.5067 2.63891 15.0256 3.23209 15.0256C3.82538 15.0256 4.30631 15.5067 4.30631 16.0999L4.30566 50.69C4.30566 51.882 5.27525 52.8516 6.46721 52.8516H46.3755C47.5675 52.8516 48.5372 51.882 48.5372 50.69V42.0611C48.5372 41.468 49.0182 40.9869 49.6114 40.9869C50.2046 40.9869 50.6856 41.468 50.6856 42.0611V50.69C50.6856 53.0665 48.7521 55 46.3755 55Z" fill="black"/>
<path d="M51.7685 43.1354H42.048C39.6787 43.1354 37.7511 41.2078 37.7511 38.8385V36.655C37.7511 34.2857 39.6787 32.3582 42.048 32.3582H51.7685C52.3617 32.3582 52.8427 32.8392 52.8427 33.4324V42.0611C52.8427 42.6543 52.3617 43.1354 51.7685 43.1354ZM42.048 34.5066C40.8633 34.5066 39.8995 35.4704 39.8995 36.655V38.8385C39.8995 40.0231 40.8633 40.9869 42.048 40.9869H50.6943V34.5066H42.048Z" fill="black"/>
<path d="M43.1395 38.8212C42.5446 38.8212 42.0653 38.3348 42.0653 37.747C42.0653 37.1604 42.5423 36.6726 43.1395 36.6722C43.7341 36.6719 44.2137 37.1583 44.2137 37.747C44.2137 38.3468 43.7229 38.8212 43.1395 38.8212Z" fill="black"/>
<path d="M39.0107 36.6637H24.8077C24.2146 36.6637 23.7335 36.1827 23.7335 35.5895V31.2751C23.7335 30.682 24.2146 30.2009 24.8077 30.2009C25.4009 30.2009 25.882 30.682 25.882 31.2751V34.5153H39.0107C39.6039 34.5153 40.085 34.9963 40.085 35.5895C40.085 36.1827 39.604 36.6637 39.0107 36.6637Z" fill="black"/>
<path d="M24.8077 45.2927C24.2146 45.2927 23.7335 44.8116 23.7335 44.2184V39.9041C23.7335 39.3109 24.2146 38.8298 24.8077 38.8298H39.0107C39.6039 38.8298 40.085 39.3109 40.085 39.9041C40.085 40.4972 39.6039 40.9783 39.0107 40.9783H25.882V44.2184C25.882 44.8116 25.401 45.2927 24.8077 45.2927Z" fill="black"/>
<path d="M24.8035 32.3493C23.0217 32.3493 21.572 30.8997 21.572 29.1179C21.572 27.3361 23.0217 25.8865 24.8035 25.8865C26.5853 25.8865 28.0348 27.3361 28.0348 29.1179C28.0348 30.8997 26.5853 32.3493 24.8035 32.3493ZM24.8035 28.0348C24.2062 28.0348 23.7205 28.5206 23.7205 29.1178C23.7205 29.715 24.2062 30.2008 24.8035 30.2008C25.4006 30.2008 25.8864 29.715 25.8864 29.1178C25.8864 28.5207 25.4006 28.0348 24.8035 28.0348Z" fill="black"/>
<path d="M17.8408 40.9782C16.059 40.9782 14.6094 39.5285 14.6094 37.7467C14.6094 35.9649 16.059 34.5153 17.8408 34.5153C19.6226 34.5153 21.0722 35.9649 21.0722 37.7467C21.0722 39.5285 19.6226 40.9782 17.8408 40.9782ZM17.8408 36.6637C17.2436 36.6637 16.7578 37.1495 16.7578 37.7467C16.7578 38.344 17.2436 38.8298 17.8408 38.8298C18.438 38.8298 18.9238 38.344 18.9238 37.7467C18.9238 37.1495 18.438 36.6637 17.8408 36.6637Z" fill="black"/>
<path d="M24.8035 49.607C23.0217 49.607 21.572 48.1573 21.572 46.3755C21.572 44.5937 23.0217 43.1442 24.8035 43.1442C26.5853 43.1442 28.0348 44.5937 28.0348 46.3755C28.0348 48.1573 26.5853 49.607 24.8035 49.607ZM24.8035 45.2926C24.2062 45.2926 23.7205 45.7784 23.7205 46.3755C23.7205 46.9728 24.2062 47.4585 24.8035 47.4585C25.4006 47.4585 25.8864 46.9728 25.8864 46.3755C25.8864 45.7784 25.4006 45.2926 24.8035 45.2926Z" fill="black"/>
<path d="M15.6836 38.8209H3.23145C2.63826 38.8209 2.15723 38.3399 2.15723 37.7467C2.15723 37.1535 2.63826 36.6725 3.23145 36.6725H15.6836C16.2768 36.6725 16.7578 37.1535 16.7578 37.7467C16.7578 38.3399 16.2768 38.8209 15.6836 38.8209Z" fill="black"/>
<path d="M24.8035 17.2489H22.6462C22.0531 17.2489 21.572 16.7679 21.572 16.1747C21.572 15.5815 22.0531 15.1004 22.6462 15.1004H24.8035C25.4006 15.1004 25.8864 14.6147 25.8864 14.0175C25.8864 13.4203 25.4006 12.9345 24.8035 12.9345C23.0217 12.9345 21.572 11.4848 21.572 9.70304C21.572 7.92123 23.0217 6.47168 24.8035 6.47168H26.9606C27.5538 6.47168 28.0348 6.95272 28.0348 7.5459C28.0348 8.13908 27.5538 8.62012 26.9606 8.62012H24.8035C24.2062 8.62012 23.7205 9.10588 23.7205 9.70304C23.7205 10.3003 24.2062 10.7861 24.8035 10.7861C26.5853 10.7861 28.0348 12.2357 28.0348 14.0175C28.0348 15.7993 26.5853 17.2489 24.8035 17.2489Z" fill="black"/>
<path d="M24.8035 8.62002C24.2103 8.62002 23.7292 8.13898 23.7292 7.5458V5.38855C23.7292 4.79537 24.2103 4.31433 24.8035 4.31433C25.3967 4.31433 25.8777 4.79537 25.8777 5.38855V7.5458C25.8777 8.13909 25.3968 8.62002 24.8035 8.62002Z" fill="black"/>
<path d="M24.8035 19.406C24.2103 19.406 23.7292 18.925 23.7292 18.3318V16.1746C23.7292 15.5814 24.2103 15.1003 24.8035 15.1003C25.3967 15.1003 25.8777 15.5814 25.8777 16.1746V18.3318C25.8777 18.9251 25.3968 19.406 24.8035 19.406Z" fill="black"/>
<path d="M46.3755 23.7205H9.70297C5.5423 23.7205 2.15723 20.3354 2.15723 16.1746C2.15723 12.0023 5.53382 8.62878 9.70297 8.62878H13.8027C14.3959 8.62878 14.8769 9.10982 14.8769 9.703C14.8769 10.2962 14.3959 10.7772 13.8027 10.7772H9.70297C6.71847 10.7772 4.30566 13.1923 4.30566 16.1746C4.30566 19.1508 6.72685 21.572 9.70297 21.572H45.3013V10.7772H35.8042C35.211 10.7772 34.73 10.2962 34.73 9.703C34.73 9.10982 35.211 8.62878 35.8042 8.62878H46.3755C46.9687 8.62878 47.4497 9.10982 47.4497 9.703V22.6463C47.4497 23.2396 46.9687 23.7205 46.3755 23.7205Z" fill="black"/>
<path d="M29.6324 23.7205H19.9746C19.816 23.7205 19.6594 23.6854 19.5161 23.6178C15.2669 21.6125 12.4039 17.3082 12.4039 12.3995C12.4039 5.57831 17.8929 0 24.8034 0C31.7195 0 37.2029 5.58454 37.2029 12.3996C37.2029 17.3086 34.3397 21.6126 30.0907 23.6179C29.9473 23.6854 29.7908 23.7205 29.6324 23.7205ZM20.2217 21.572H29.3852C32.8372 19.8443 35.0545 16.2699 35.0545 12.3995C35.0545 6.76017 30.5169 2.14833 24.8034 2.14833C19.0941 2.14833 14.5523 6.7548 14.5523 12.3995C14.5524 16.2699 16.7697 19.8443 20.2217 21.572Z" fill="black"/>
</svg>